<!DOCTYPE svg PUBLIC "-//W3C//DTD SVG 1.1//EN" "http://www.w3.org/Graphics/SVG/1.1/DTD/svg11.dtd">
<!-- Uploaded to: SVG Repo, www.svgrepo.com, Transformed by: SVG Repo Mixer Tools -->
<svg height="800px" width="800px" version="1.1" id="_x32_" xmlns="http://www.w3.org/2000/svg" xmlns:xlink="http://www.w3.org/1999/xlink" viewBox="0 0 512 512" xml:space="preserve" fill="#F13F3F">
<g id="SVGRepo_bgCarrier" stroke-width="0"/>
<g id="SVGRepo_tracerCarrier" stroke-linecap="round" stroke-linejoin="round"/>
<g id="SVGRepo_iconCarrier"> <style type="text/css"> .st0{fill:#F13F3F;} </style> <g> <path class="st0" d="M147.72,116.47v79.918c0,6.226,8.914,11.263,19.902,11.263c10.989,0,19.896-5.037,19.896-11.263V116.47 c0-6.226-8.907-11.263-19.896-11.263C156.634,105.206,147.72,110.243,147.72,116.47z"/> <path class="st0" d="M166.668,99.484c23.375,0.497,32.57-18.109,32.09-32.612c-0.519-15.522-5.694-38.296-39.335-49.167 c-1.042,18.11-23.293,25.871-24.328,49.945C134.494,81.61,142.343,98.961,166.668,99.484z M166.146,50.833 c13.978,9.309,15.843,18.762,16.088,26.236c0.232,6.983-4.188,15.927-15.434,15.692c-11.701-0.255-15.48-8.611-15.192-15.314 C152.107,65.872,164.598,60.142,166.146,50.833z"/> <path class="st0" d="M236.8,116.47v79.918c0,6.226,8.904,11.263,19.906,11.263c10.982,0,19.893-5.037,19.893-11.263V116.47 c0-6.226-8.912-11.263-19.893-11.263C245.704,105.206,236.8,110.243,236.8,116.47z"/> <path class="st0" d="M255.746,99.484c23.374,0.497,32.573-18.109,32.089-32.612c-0.522-15.522-5.696-38.296-39.334-49.167 c-1.032,18.11-23.297,25.871-24.329,49.945C223.57,81.61,231.423,98.961,255.746,99.484z M255.229,50.833 c13.974,9.309,15.83,18.762,16.078,26.236c0.236,6.983-4.187,15.927-15.43,15.692c-11.7-0.255-15.477-8.611-15.189-15.314 C241.183,65.872,253.674,60.142,255.229,50.833z"/> <path class="st0" d="M197.723,155.824c9.248-1.45,18.896-2.561,28.879-3.312v-20.474c-9.93,0.705-19.573,1.751-28.879,3.122 V155.824z"/> <path class="st0" d="M286.796,152.597c9.988,0.791,19.638,1.953,28.876,3.442v-20.65c-9.303-1.404-18.952-2.495-28.876-3.234 V152.597z"/> <path class="st0" d="M325.87,116.47v79.918c0,6.226,8.911,11.263,19.906,11.263c10.988,0,19.893-5.037,19.893-11.263V116.47 c0-6.226-8.904-11.263-19.893-11.263C334.781,105.206,325.87,110.243,325.87,116.47z"/> <path class="st0" d="M344.815,99.484c23.382,0.497,32.574-18.109,32.09-32.612c-0.51-15.522-5.69-38.296-39.328-49.167 c-1.039,18.11-23.29,25.871-24.329,49.945C312.647,81.61,320.494,98.961,344.815,99.484z M344.306,50.833 c13.968,9.309,15.836,18.762,16.078,26.236c0.242,6.983-4.188,15.927-15.437,15.692c-11.694-0.255-15.47-8.611-15.183-15.314 C330.26,65.872,342.751,60.142,344.306,50.833z"/> <path class="st0" d="M505.52,354.837c-6.246-12.301-16.404-23.133-29.398-32.769c-10.995-8.147-24.192-15.398-39.041-21.866 v-87.358c0.006-6.599-1.627-13.027-4.508-18.907c-5.07-10.335-13.687-19.063-24.636-26.648 c-9.075-6.239-19.887-11.707-32.064-16.45v22.062c13.177,5.821,23.597,12.53,30.392,19.305c3.671,3.632,6.298,7.238,7.97,10.675 c1.672,3.442,2.43,6.67,2.443,9.963v11.465c-2.006-0.601-4.129-0.934-6.331-0.934c-12.144,0.006-21.97,9.839-21.983,21.983v20.814 v10.688c0,2.339-0.928,4.403-2.456,5.945c-1.542,1.528-3.606,2.456-5.945,2.456c-2.345,0-4.403-0.927-5.944-2.456 c-1.529-1.542-2.456-3.606-2.456-5.945v-10.871c-0.014-14.177-11.498-25.661-25.674-25.668 c-14.177,0.007-25.662,11.491-25.662,25.668v7.807v16.47c0,2.933-1.169,5.527-3.083,7.454c-1.934,1.92-4.528,3.09-7.46,3.09 c-2.934,0-5.527-1.17-7.454-3.09c-1.921-1.928-3.09-4.521-3.09-7.454v-7.656c0-14.184-11.485-25.662-25.668-25.675 c-14.177,0.013-25.655,11.491-25.662,25.675v18.286c0,3.351-1.333,6.324-3.528,8.532c-2.208,2.195-5.181,3.528-8.532,3.534 c-3.358-0.007-6.324-1.346-8.532-3.534c-2.188-2.208-3.527-5.181-3.527-8.532v-31.639v-5.318h-0.614 c-2.417-10.772-12.027-18.828-23.535-18.828c-13.336,0-24.142,10.806-24.149,24.146v10.538c-0.003,2.94-1.169,5.533-3.087,7.46 c-1.927,1.914-4.523,3.084-7.457,3.09c-2.934-0.006-5.527-1.176-7.454-3.09c-1.917-1.927-3.087-4.521-3.09-7.46v-26.151 c-0.003-13.341-10.805-24.146-24.146-24.146c-13.343,0-24.142,10.805-24.149,24.146v7.428c-0.003,2.064-0.82,3.88-2.172,5.239 c-1.365,1.353-3.182,2.176-5.25,2.176c-1.188,0-2.283-0.294-3.266-0.784v-54.856c0.007-3.293,0.765-6.521,2.437-9.963 c2.894-5.997,8.871-12.583,17.897-18.789c6.03-4.181,13.435-8.14,21.862-11.779v-22.055c-2.14,0.817-4.24,1.653-6.294,2.509 c-16.306,6.86-29.878,15.084-39.861,24.942c-4.978,4.939-9.058,10.322-11.942,16.228c-2.881,5.88-4.512,12.308-4.505,18.907v87.312 c-21.487,9.362-39.361,20.409-52.46,33.325c-6.892,6.82-12.474,14.189-16.381,22.16c-3.904,7.957-6.079,16.561-6.072,25.38 c-0.007,8.82,2.169,17.417,6.072,25.374c6.866,13.961,18.72,26.04,34.076,36.63c23.078,15.849,54.367,28.496,91.253,37.388 c36.878,8.859,79.352,13.883,124.6,13.883c68.961-0.026,131.423-11.603,177.578-30.868c23.081-9.675,42.151-21.245,55.961-34.873 c6.899-6.814,12.478-14.183,16.384-22.16c3.907-7.957,6.076-16.554,6.076-25.374C512,371.901,509.675,363.023,505.52,354.837z M95.319,281.812c1.065,0.163,2.153,0.281,3.266,0.281c11.612-0.007,21.02-9.407,21.029-21.023v-7.428 c0-2.934,1.164-5.527,3.088-7.46c1.927-1.915,4.521-3.084,7.454-3.084c2.93,0,5.524,1.169,7.458,3.084 c1.918,1.933,3.084,4.527,3.087,7.46v26.151c0.003,13.347,10.812,24.146,24.146,24.146c13.336,0,24.146-10.799,24.148-24.146 v-10.538c0.004-2.94,1.17-5.527,3.088-7.461c1.93-1.921,4.524-3.084,7.457-3.084c2.934,0,5.524,1.163,7.451,3.084 c1.92,1.934,3.083,4.521,3.09,7.461v31.639c0.007,14.176,11.492,25.661,25.668,25.661c14.177-0.007,25.655-11.485,25.661-25.661 v-18.286c0.006-3.358,1.339-6.33,3.535-8.532c2.202-2.196,5.174-3.534,8.525-3.534c3.352,0,6.33,1.339,8.526,3.534 c2.195,2.202,3.534,5.174,3.541,8.532v7.656c0,13.34,10.805,24.146,24.146,24.152c13.34-0.006,24.145-10.812,24.145-24.152v-16.47 v-7.807c0.007-3.358,1.339-6.324,3.535-8.526c2.202-2.196,5.174-3.528,8.526-3.534c3.358,0.006,6.324,1.338,8.532,3.534 c2.195,2.202,3.528,5.174,3.528,8.526v10.871c0.013,12.158,9.852,22.003,22.016,22.009c12.158-0.006,22.003-9.851,22.01-22.009 v-10.688v-20.814c0.006-2.339,0.921-4.384,2.45-5.925c1.541-1.529,3.593-2.45,5.925-2.45c2.333,0,4.384,0.92,5.919,2.45 l0.412,0.496v97.119c-0.013,3.292-0.771,6.52-2.443,9.969c-2.894,5.991-8.872,12.576-17.894,18.782 c-13.491,9.349-33.521,17.691-57.68,23.486c-24.166,5.834-52.46,9.218-82.668,9.218c-46.012,0.026-87.646-7.905-116.881-20.194 c-14.618-6.114-26.073-13.334-33.383-20.618c-3.668-3.638-6.301-7.245-7.973-10.675c-1.672-3.449-2.43-6.677-2.437-9.969V281.812z M486.691,396.988c-4.573,9.414-13.654,19.252-26.981,28.405c-19.938,13.752-49.089,25.805-84.118,34.207 c-35.029,8.428-75.939,13.294-119.592,13.288c-66.512,0.033-126.697-11.354-169.322-29.215 c-21.307-8.885-38.162-19.416-49.174-30.339c-5.517-5.449-9.574-10.962-12.203-16.346c-2.633-5.396-3.888-10.623-3.894-15.966 c0.006-5.344,1.26-10.57,3.894-15.966c3.93-8.074,11.136-16.45,21.536-24.446c7.718-5.945,17.172-11.655,28.076-16.94v13.379 c-0.007,6.598,1.624,13.033,4.505,18.913c5.07,10.329,13.686,19.05,24.642,26.641c16.479,11.341,38.554,20.252,64.49,26.524 c25.93,6.252,55.72,9.78,87.444,9.78c48.364-0.026,92.166-8.134,124.779-21.781c16.306-6.86,29.882-15.078,39.857-24.943 c4.979-4.939,9.062-10.322,11.943-16.221c2.88-5.88,4.514-12.314,4.508-18.913v-13.393c15.137,7.337,27.451,15.503,36.278,23.95 c5.899,5.625,10.25,11.334,13.066,16.901c2.816,5.592,4.155,10.994,4.162,16.515C490.586,386.365,489.331,391.592,486.691,396.988z "/> </g> </g>
</svg>