<!DOCTYPE svg PUBLIC "-//W3C//DTD SVG 1.1//EN" "http://www.w3.org/Graphics/SVG/1.1/DTD/svg11.dtd">
<!-- Uploaded to: SVG Repo, www.svgrepo.com, Transformed by: SVG Repo Mixer Tools -->
<svg fill="#f13f3f" height="800px" width="800px" version="1.1" id="Capa_1" xmlns="http://www.w3.org/2000/svg" xmlns:xlink="http://www.w3.org/1999/xlink" viewBox="0 0 49.771 49.771" xml:space="preserve" stroke="#f13f3f">
<g id="SVGRepo_bgCarrier" stroke-width="0"/>
<g id="SVGRepo_tracerCarrier" stroke-linecap="round" stroke-linejoin="round"/>
<g id="SVGRepo_iconCarrier"> <path d="M47.349,5.524l-0.058-0.13c-0.008-0.018-0.021-0.033-0.03-0.051c-0.06-0.125-0.128-0.246-0.209-0.359 c-0.037-0.052-0.085-0.097-0.126-0.147c-0.062-0.073-0.122-0.148-0.194-0.215c-0.05-0.047-0.109-0.089-0.164-0.133 c-0.078-0.063-0.156-0.125-0.243-0.182c-0.054-0.034-0.113-0.065-0.17-0.097c-0.072-0.041-0.138-0.086-0.216-0.123l-0.005,0.01 c-0.754-0.357-1.765-0.544-3.043-0.544c-2.84,0-7.001,0.883-11.74,2.479c-0.272-0.126-0.542-0.253-0.817-0.377 C22.59,2.168,15.004,0,10.537,0C10.241,0,9.958,0.01,9.69,0.029C7.81,0.164,6.616,0.772,6.134,1.841L6.133,1.845 c0,0.001-0.001,0.002-0.001,0.002L6.08,1.962c-2.65,5.881-2.724,12.542-0.402,18.416c-0.554,0.639-0.97,1.243-1.249,1.812 c-2.696,1.044-4.078,2.325-4.078,3.818v0.132c0,13.03,10.601,23.631,23.63,23.631c13.03,0,23.631-10.601,23.631-23.631v-0.132 c0-0.373-0.098-0.736-0.274-1.09C50.077,18.813,50.145,11.729,47.349,5.524z M29.908,30.275c-1.91,0.128-3.902,0.196-5.926,0.196 c-0.657,0-1.31-0.008-1.959-0.021c-0.154-0.003-0.304-0.01-0.457-0.013c-0.5-0.013-0.999-0.028-1.493-0.049 c-0.161-0.007-0.32-0.016-0.48-0.024c-0.477-0.023-0.953-0.048-1.421-0.079c-0.17-0.011-0.337-0.024-0.506-0.036 c-0.448-0.032-0.892-0.066-1.33-0.105c-0.185-0.016-0.368-0.034-0.55-0.051c-0.405-0.039-0.806-0.08-1.201-0.124 c-0.206-0.023-0.412-0.047-0.615-0.072c-0.356-0.043-0.705-0.089-1.051-0.137c-0.225-0.031-0.45-0.062-0.67-0.095 c-0.321-0.048-0.635-0.1-0.946-0.152c-0.219-0.037-0.44-0.072-0.655-0.111c-0.305-0.055-0.599-0.114-0.893-0.173 c-0.169-0.034-0.343-0.067-0.508-0.103c-0.33-0.392-0.644-0.794-0.944-1.205c-0.102-0.139-0.192-0.285-0.29-0.427 c-0.193-0.279-0.388-0.556-0.567-0.843c-0.013-0.02-0.023-0.041-0.036-0.061c0.37,0.041,0.768,0.061,1.196,0.061h0.001 c0.605,0,1.271-0.043,1.983-0.12l0.006,0.002l0.232-0.027c0.046-0.005,0.098-0.016,0.144-0.021c0.509-0.063,1.035-0.14,1.588-0.239 c0.101-0.018,0.208-0.041,0.311-0.06c0.441-0.083,0.895-0.176,1.36-0.28c0.184-0.041,0.364-0.079,0.551-0.123 c0.48-0.113,0.975-0.24,1.477-0.374c0.281-0.075,0.564-0.152,0.852-0.233c0.452-0.128,0.91-0.262,1.376-0.405 c0.331-0.102,0.667-0.209,1.005-0.319c0.348-0.112,0.699-0.229,1.052-0.349c0.375-0.127,0.75-0.257,1.131-0.393 c0.474-0.169,0.952-0.344,1.433-0.526c0.242-0.092,0.484-0.183,0.728-0.277c0.635-0.246,1.276-0.503,1.92-0.769 c0.163-0.068,0.326-0.137,0.489-0.206c0.717-0.302,1.437-0.612,2.16-0.937c0.482-0.217,0.977-0.448,1.478-0.686 c0.33-0.156,0.656-0.313,0.982-0.471l0.006,0.002l0.388-0.19c0.164-0.081,0.324-0.163,0.487-0.245 c0.231-0.115,0.461-0.23,0.689-0.346c0.385-0.197,0.764-0.394,1.141-0.593c0.16-0.085,0.323-0.168,0.482-0.253 c0.546-0.293,1.082-0.587,1.606-0.884c0.041-0.023,0.08-0.047,0.122-0.07c0.479-0.272,0.948-0.546,1.406-0.82 c0.14-0.083,0.275-0.167,0.413-0.251c0.356-0.216,0.705-0.432,1.047-0.648c0.154-0.098,0.307-0.195,0.458-0.293 c0.328-0.211,0.646-0.422,0.959-0.634c0.135-0.091,0.273-0.182,0.405-0.273c0.43-0.296,0.849-0.591,1.248-0.884l1.151-0.848 l-0.045-0.03c1.561-1.237,2.851-2.47,3.672-3.635c0.003,0.011,0.008,0.021,0.011,0.032c0.021,0.069,0.037,0.14,0.057,0.209 c0.103,0.357,0.2,0.715,0.284,1.075c0.034,0.146,0.062,0.294,0.093,0.44c0.061,0.286,0.119,0.571,0.168,0.858 c0.029,0.167,0.052,0.336,0.076,0.504c0.039,0.27,0.075,0.54,0.104,0.811c0.019,0.174,0.035,0.348,0.049,0.522 c0.022,0.268,0.039,0.536,0.051,0.805c0.008,0.173,0.016,0.346,0.02,0.519c0.006,0.276,0.004,0.552,0,0.828 c-0.003,0.164-0.003,0.327-0.009,0.49c-0.012,0.308-0.034,0.615-0.059,0.921c-0.011,0.129-0.016,0.259-0.029,0.388 c-0.043,0.436-0.098,0.871-0.168,1.304c-0.007,0.044-0.018,0.088-0.025,0.132c-0.065,0.387-0.139,0.774-0.225,1.157 c-0.032,0.142-0.07,0.282-0.105,0.424c-0.07,0.285-0.141,0.569-0.223,0.852c-0.047,0.163-0.099,0.324-0.15,0.486 c-0.081,0.259-0.165,0.517-0.256,0.773c-0.059,0.167-0.122,0.334-0.186,0.5c-0.096,0.25-0.196,0.498-0.301,0.744 c-0.07,0.163-0.14,0.326-0.213,0.488c-0.072,0.158-0.151,0.313-0.226,0.469c-0.222,0.458-0.459,0.904-0.708,1.339 c-0.034,0.059-0.066,0.118-0.1,0.177c-0.016,0.027-0.031,0.055-0.047,0.082c-0.289,0.49-0.591,0.967-0.911,1.422 C40.62,28.964,35.637,29.891,29.908,30.275z M6.931,5.385C9.827,9.5,18.439,14.474,25.025,17.441c1.087,0.49,2.182,0.95,3.276,1.394 c-0.243,0.112-0.472,0.224-0.72,0.336c-0.694,0.313-1.383,0.61-2.07,0.9c-0.153,0.064-0.306,0.13-0.459,0.193 c-0.637,0.265-1.27,0.519-1.898,0.763c-0.185,0.072-0.369,0.142-0.552,0.212c-0.57,0.217-1.136,0.427-1.694,0.626 c-0.165,0.059-0.329,0.116-0.492,0.173c-0.544,0.19-1.081,0.369-1.611,0.54c-0.162,0.052-0.326,0.106-0.486,0.157 c-0.603,0.189-1.195,0.367-1.775,0.53c-0.104,0.029-0.206,0.057-0.309,0.086c-1.979,0.546-3.809,0.936-5.41,1.14 c-0.316-0.117-0.607-0.233-0.867-0.349c-0.4-0.568-0.77-1.168-1.119-1.787C8.8,22.287,8.76,22.219,8.722,22.149 c-0.348-0.634-0.673-1.289-0.963-1.967l-0.017-0.039C5.766,15.489,5.459,10.251,6.931,5.385z M6.026,23.99L6.026,23.99L6.026,23.99 L6.026,23.99c-0.028-0.063-0.032-0.15-0.025-0.248c0.003-0.039,0.017-0.089,0.025-0.134c0.014-0.071,0.03-0.143,0.058-0.224 c0.086-0.252,0.24-0.565,0.515-0.959c0.011,0.021,0.024,0.041,0.035,0.063c0.237,0.462,0.49,0.917,0.759,1.365 C7.438,23.924,7.478,24,7.523,24.073c0.114,0.186,0.237,0.367,0.357,0.551c-1.169-0.086-1.733-0.375-1.852-0.63l-0.001,0 L6.026,23.99z M45.142,5.932c0.043,0.023,0.085,0.046,0.127,0.075c0.019,0.014,0.034,0.028,0.051,0.042 c0.058,0.048,0.112,0.101,0.143,0.164c0.001,0.003,0.004,0.006,0.006,0.008c0.318,0.729-1.132,2.682-4.406,5.199 c-0.337-0.218-0.68-0.435-1.03-0.652c-0.111-0.069-0.223-0.137-0.335-0.206c-1.195-0.73-2.461-1.453-3.785-2.162 c-0.006-0.003-0.013-0.007-0.019-0.01c-0.695-0.372-1.404-0.739-2.127-1.101c3.699-1.125,6.883-1.735,9.123-1.735 C44.048,5.555,44.76,5.725,45.142,5.932z M4.091,24.505c0.03,0.104,0.068,0.206,0.113,0.306l-0.001,0l0.004,0.008l0,0.001l0.05,0.11 c0.251,0.557,0.527,1.101,0.822,1.637c0.096,0.174,0.204,0.342,0.304,0.514c0.208,0.356,0.418,0.711,0.645,1.056 c0.037,0.057,0.068,0.117,0.106,0.173c-0.091-0.03-0.178-0.059-0.265-0.088C5.687,28.161,5.513,28.1,5.35,28.039 c-0.113-0.042-0.232-0.084-0.337-0.126c-0.224-0.09-0.429-0.178-0.619-0.265c-0.092-0.042-0.178-0.083-0.263-0.125 c-0.15-0.074-0.291-0.146-0.418-0.218c-0.071-0.04-0.139-0.079-0.203-0.118c-0.118-0.071-0.226-0.141-0.323-0.208 c-0.044-0.031-0.089-0.062-0.129-0.092c-0.107-0.08-0.204-0.158-0.284-0.232c-0.024-0.022-0.043-0.043-0.065-0.064 c-0.063-0.063-0.119-0.123-0.164-0.179c-0.012-0.015-0.027-0.031-0.037-0.046c-0.048-0.066-0.083-0.126-0.108-0.18 c-0.006-0.013-0.01-0.025-0.015-0.038c-0.02-0.053-0.033-0.102-0.033-0.141C2.351,25.732,2.751,25.164,4.091,24.505z"/> </g>
</svg>