<!DOCTYPE svg PUBLIC "-//W3C//DTD SVG 1.1//EN" "http://www.w3.org/Graphics/SVG/1.1/DTD/svg11.dtd">
<!-- Uploaded to: SVG Repo, www.svgrepo.com, Transformed by: SVG Repo Mixer Tools -->
<svg fill="#F13F3F" version="1.1" id="Capa_1" xmlns="http://www.w3.org/2000/svg" xmlns:xlink="http://www.w3.org/1999/xlink" viewBox="0 0 243.317 243.317" xml:space="preserve" width="800px" height="800px">
<g id="SVGRepo_bgCarrier" stroke-width="0"/>
<g id="SVGRepo_tracerCarrier" stroke-linecap="round" stroke-linejoin="round"/>
<g id="SVGRepo_iconCarrier"> <g> <rect x="39" y="17.619" width="22" height="54"/> <rect x="77" y="17.619" width="22" height="54"/> <rect x="116" y="17.619" width="22" height="54"/> <polygon points="139,139.619 139,108.619 177,108.619 177,14.619 155,14.619 155,86.619 22,86.619 22,14.619 0,14.619 0,108.619 38,108.619 38,139.619 65,139.619 65,227.619 111,227.619 111,139.619 "/> <polygon points="176.166,204.619 199.591,204.619 243.317,228.699 232.535,189.591 243.218,149.776 201.738,172.619 174.02,172.619 132.54,149.776 143.223,189.591 132.44,228.699 "/> </g> </g>
</svg>