<!DOCTYPE svg PUBLIC "-//W3C//DTD SVG 1.1//EN" "http://www.w3.org/Graphics/SVG/1.1/DTD/svg11.dtd">
<!-- Uploaded to: SVG Repo, www.svgrepo.com, Transformed by: SVG Repo Mixer Tools -->
<svg height="800px" width="800px" version="1.1" id="_x32_" xmlns="http://www.w3.org/2000/svg" xmlns:xlink="http://www.w3.org/1999/xlink" viewBox="0 0 512 512" xml:space="preserve" fill="#000000">
<g id="SVGRepo_bgCarrier" stroke-width="0"/>
<g id="SVGRepo_tracerCarrier" stroke-linecap="round" stroke-linejoin="round"/>
<g id="SVGRepo_iconCarrier"> <style type="text/css"> .st0{fill:#F13F3F;} </style> <g> <path class="st0" d="M421.541,385.536c-12.117,3.559-24.26,5.588-36.134,6.178c-5.592,0.313-10.464,3.089-13.225,7.476 c-2.6,4.149-5.453,8.148-8.554,11.953c-2.499,3.074-3.291,7.282-2.119,11.37c1.182,4.081,4.282,7.432,8.535,8.431 c11.789,2.761,24.26,4.216,37.152,4.231c6.047,0.037,12.692-4.156,16.564-10.901c3.645-6.282,6.894-12.788,9.722-19.496 c2.32-5.446,2-11.423-0.608-15.302C430.259,385.566,425.883,384.261,421.541,385.536z"/> <path class="st0" d="M376.927,453.827c-12.269-2.985-23.812-7.275-34.391-12.692c-5.018-2.529-10.621-2.529-15.202-0.104 c-4.316,2.305-8.782,4.327-13.348,6.081c-3.686,1.41-6.468,4.648-7.494,8.782c-1.011,4.118,0,8.58,3.174,11.564 c8.822,8.305,18.902,15.781,30.079,22.219c5.226,3.059,13.079,2.724,19.805-1.186c6.286-3.634,12.34-7.655,18.127-12.05 c4.718-3.558,7.427-8.878,7.099-13.549C384.467,458.206,381.326,454.894,376.927,453.827z"/> <path class="st0" d="M280.775,462.49c-3.071-4.686-7.939-7.521-13.142-7.7c-4.914-0.179-9.804-0.641-14.636-1.41 c-3.909-0.62-7.934,0.798-10.885,3.872c-2.932,3.066-4.275,7.431-3.018,11.609c3.507,11.58,8.506,23.114,14.967,34.254 c1.522,2.626,3.984,4.858,7.073,6.424c3.078,1.566,6.774,2.454,10.632,2.462c7.236-0.008,14.489-0.448,21.692-1.336 c5.872-0.723,10.897-3.961,12.956-8.162c2.086-4.216,1.03-8.656-2.246-11.781C295.044,481.984,287.22,472.48,280.775,462.49z"/> <path class="st0" d="M216.55,450.134c-0.309-5.596-3.093-10.468-7.48-13.221c-4.152-2.596-8.147-5.461-11.945-8.558 c-3.077-2.5-7.286-3.29-11.381-2.126c-4.074,1.193-7.42,4.297-8.42,8.534c-2.764,11.804-4.222,24.263-4.23,37.156 c-0.041,6.058,4.148,12.698,10.893,16.571c6.278,3.648,12.796,6.886,19.492,9.721c5.45,2.314,11.426,2,15.31-0.611 c3.909-2.611,5.211-6.991,3.928-11.326C219.169,474.15,217.136,462.004,216.55,450.134z"/> <path class="st0" d="M161.149,378.717c-1.414-3.693-4.652-6.469-8.786-7.498c-4.119-1.008-8.569,0.007-11.561,3.17 c-8.297,8.834-15.788,18.906-22.219,30.083c-3.063,5.23-2.72,13.087,1.179,19.802c3.644,6.282,7.662,12.348,12.049,18.13 c3.566,4.716,8.882,7.424,13.553,7.103c4.686-0.313,8.002-3.446,9.066-7.849c2.992-12.266,7.278-23.816,12.691-34.396 c2.526-5.013,2.526-10.624,0.108-15.205C164.927,387.745,162.895,383.284,161.149,378.717z"/> <path class="st0" d="M145.768,345.501c4.692-3.074,7.517-7.939,7.707-13.146c0.171-4.909,0.634-9.804,1.41-14.624 c0.612-3.917-0.809-7.946-3.876-10.893c-3.067-2.932-7.435-4.282-11.605-3.022c-11.583,3.507-23.114,8.513-34.265,14.974 c-2.623,1.522-4.857,3.984-6.416,7.066c-1.567,3.081-2.458,6.782-2.462,10.639c0.004,7.23,0.444,14.489,1.332,21.689 c0.721,5.879,3.962,10.893,8.17,12.952c4.208,2.09,8.656,1.03,11.778-2.238C126.272,359.766,135.778,351.947,145.768,345.501z"/> <path class="st0" d="M182.025,250.478c-1.183-4.089-4.287-7.432-8.536-8.432c-11.792-2.76-24.26-4.215-37.148-4.23 c-6.058-0.037-12.698,4.156-16.574,10.893c-3.638,6.29-6.883,12.803-9.714,19.496c-2.32,5.454-2,11.43,0.604,15.31 c2.615,3.917,6.99,5.207,11.333,3.932c12.12-3.544,24.266-5.588,36.13-6.17c5.6-0.306,10.472-3.089,13.232-7.476 c2.6-4.148,5.45-8.147,8.551-11.953C182.405,258.774,183.196,254.566,182.025,250.478z"/> <path class="st0" d="M203.788,183.314c-5.233-3.066-13.086-2.723-19.801,1.179c-6.29,3.641-12.352,7.663-18.13,12.05 c-4.723,3.558-7.428,8.878-7.099,13.549c0.31,4.686,3.446,8.006,7.845,9.065c12.27,2.992,23.805,7.282,34.396,12.692 c5.013,2.529,10.62,2.529,15.198,0.104c4.32-2.297,8.782-4.327,13.348-6.073c3.693-1.417,6.469-4.648,7.499-8.789 c1.007-4.11-0.004-8.572-3.179-11.557C225.044,197.236,214.968,189.745,203.788,183.314z"/> <path class="st0" d="M437.772,301.847c-4.208-2.082-8.658-1.03-11.785,2.245c-8.73,9.132-18.227,16.952-28.221,23.391 c-3.429,2.23-5.842,5.454-6.98,9.012c-0.436,1.328-0.672,2.716-0.727,4.141c-0.172,4.902-0.634,9.797-1.403,14.624 c-0.616,3.917,0.794,7.939,3.864,10.893c3.07,2.925,7.435,4.275,11.614,3.014c11.579-3.507,23.106-8.506,34.256-14.967 c2.627-1.522,4.854-3.984,6.417-7.073c1.571-3.074,2.462-6.774,2.462-10.632c0-7.237-0.437-14.489-1.328-21.689 C445.218,308.927,441.98,303.906,437.772,301.847z"/> <path class="st0" d="M338.947,162.267c-1.824,0.91-3.969,1.663-6.353,2.223v17.921c0.578-0.313,1.16-0.627,1.757-0.933 c1.443-0.746,2.966-1.492,4.596-2.246V162.267z"/> <path class="st0" d="M311.189,182.814c0.404,0.231,0.788,0.455,1.175,0.694v-19.07c-2.294-0.552-4.376-1.29-6.155-2.17v17.958 C307.977,181.076,309.625,181.926,311.189,182.814z"/> <path class="st0" d="M288.847,172.525c4.174,1.836,7.704,3.35,10.814,4.708v-22.748c0-6.156,10.263-11.139,22.92-11.139 c12.658,0,22.917,4.984,22.917,11.139v21.831c2.588-1.119,5.454-2.358,8.725-3.79c6.368-2.776,11.106-7.236,14.314-12.415 c3.208-5.178,4.816-11.064,4.808-16.503c0-2.052-0.228-4.036-0.675-5.887c-0.236-0.53-0.496-1.052-0.765-1.575 c-4.022-7.67-10.848-14.362-19.582-19.114c-8.726-4.761-19.328-7.574-30.792-7.574c-15.28-0.015-29.045,5.014-38.856,12.93 c-4.914,3.97-8.834,8.64-11.512,13.758c-0.28,0.523-0.53,1.044-0.765,1.575c-0.452,1.85-0.683,3.834-0.683,5.887 c-0.004,5.431,1.604,11.326,4.809,16.503C277.737,165.288,282.483,169.749,288.847,172.525z"/> <path class="st0" d="M321.533,190.357c1.523-1.387,3.015-2.611,4.521-3.73v-21.144c-1.134,0.082-2.294,0.127-3.473,0.127 c-1.253,0-2.477-0.053-3.666-0.142v22.637c0.817,0.656,1.634,1.358,2.462,2.104L321.533,190.357z"/> <path class="st0" d="M264.102,131.639c-5.178,2.738-9.743,6.648-13.466,11.527c-6.308,8.267-10.147,19.339-10.147,32.194 c0,6.544,0.996,13.556,3.182,20.883c4.059,13.572,9.58,24.062,15.844,32.209c9.404,12.229,20.491,19.235,31.205,23.294 c2.354,0.895,4.694,1.626,6.984,2.245c-0.303-0.813-0.549-1.649-0.761-2.507c-0.634-2.559-0.884-5.29-0.884-8.147 c0.007-7.23,1.66-15.243,4.197-22.622c1.272-3.685,2.776-7.199,4.435-10.363c1.504-2.843,3.13-5.395,4.925-7.535 c0.186-0.232,0.388-0.471,0.596-0.694c2.082-2.343,3.958-4.402,5.712-6.238c-0.093-0.089-0.184-0.164-0.273-0.246 c-3.495-3.081-6.509-5.073-10.55-7.177c-4.6-2.387-10.528-4.865-19.395-8.729c-6.208-2.716-11.24-6.76-15.034-11.498l-0.008-0.008 c-1.029-1.283-1.973-2.618-2.82-3.984c-2.257-3.663-3.895-7.58-4.864-11.564c-0.743-3.029-1.116-6.073-1.116-9.072 c0-2.932,0.351-5.827,1.1-8.573C263.267,133.877,263.651,132.736,264.102,131.639z"/> <path class="st0" d="M372.406,168.228l-0.014,0.008c-3.79,4.738-8.819,8.781-15.026,11.498c-5.913,2.581-10.531,4.536-14.303,6.259 c-2.828,1.298-5.185,2.455-7.301,3.649c-2.988,1.716-5.517,3.506-8.344,5.998c-0.09,0.067-0.176,0.157-0.273,0.232l-0.198,0.186 c-1.648,1.478-3.42,3.208-5.413,5.312c-0.694,0.739-1.429,1.522-2.182,2.343c-1.018,1.126-2.112,2.327-3.272,3.633 c-1.444,1.612-2.996,3.94-4.432,6.678c-2.183,4.118-4.152,9.199-5.536,14.369c-1.399,5.163-2.212,10.438-2.201,14.945 c-0.012,2.096,0.179,4.022,0.526,5.67c0.25,1.223,0.604,2.298,1.03,3.171c0.627,1.306,1.355,2.149,2.186,2.708 c0.426,0.291,0.899,0.5,1.462,0.664c0.571,0.164,1.242,0.254,2.067,0.254c0.224,0,0.537,0.037,0.765,0.082 c0.096,0.022,3.764,0.724,9.568,0.888c0.713,0.015,1.474,0.03,2.257,0.03c2.261,0,4.775-0.09,7.465-0.329 c3.305-0.298,6.886-0.798,10.62-1.626c1.149-0.254,2.306-0.53,3.484-0.858c9.256-2.484,19.19-6.998,28.315-14.974 c10.296-8.998,19.649-22.413,25.744-42.774c2.175-7.327,3.182-14.34,3.182-20.883c0-12.855-3.86-23.927-10.151-32.194 c-3.719-4.88-8.296-8.789-13.463-11.527c0.448,1.096,0.828,2.238,1.131,3.394c0.753,2.746,1.108,5.641,1.108,8.573 c0,6.953-2.007,14.205-5.987,20.636C374.38,165.609,373.436,166.945,372.406,168.228z"/> <path class="st0" d="M432.874,271.085c-5.95-27.896-21.961-36.828-37.536-37.663c-3.174,3.656-6.528,7.059-10.121,10.192 c8.67,1.91,18.294,6.417,26.468,15.967c-12.299-7.939-22.342-11.535-30.206-12.826c-4.126,3.312-8.482,6.26-13.067,8.819 c-1.567,0.911-3.134,1.746-4.731,2.514c-3.331,1.724-6.763,3.216-10.307,4.507c8.203,7.953,15.612,19.249,18.324,35.022 c-7.868-15.967-16.082-26.435-23.603-33.217c-1.448,0.493-2.895,0.918-4.353,1.284c-1.72,0.462-3.395,0.888-5.118,1.268 c-4.887,1.067-9.964,1.865-15.161,2.328c-1.258,0.112-2.522,0.187-3.78,0.232c9.662,45.825,58.126,50.071,68.096,55.294 c7.521-22.003,5.682-38.38-0.884-50.37C406.679,280.351,426.54,271.413,432.874,271.085z"/> <path class="st0" d="M162.043,180.964l-12.698-1.813c0,0-71.241,3.44-125.02,14.907c0.675,8.259,1.462,16.817,2.394,25.427 c23.868-8.744,62.636-20.063,120.812-29.456L162.043,180.964z"/> <path class="st0" d="M158.395,172.152l19.667-9.639l-12.09-4.313c0,0-84.999-11.34-144.512-10.192 c0.355,8.044,0.832,17.392,1.507,27.539C51.173,172.451,96.309,169.638,158.395,172.152z"/> <path class="st0" d="M157.243,198.788l-12.314,0.709c0,0-67.395,16.57-116.168,37.186c1.208,9.214,2.582,18.332,4.174,27.053 c20.641-10.953,56.274-27.732,112.78-48.31L157.243,198.788z"/> <path class="st0" d="M207.395,48.531c0,8.715,6.152,15.989,14.344,17.735c1.593,6.394,3.388,13.251,5.402,20.548 c-4.279,3.313-7.047,8.49-7.047,14.325c0,9.505,7.319,17.295,16.623,18.07c0.947,3.007,1.921,6.066,2.936,9.177 c2.608-2.373,5.424-4.678,8.27-6.849c-0.467-1.44-0.911-2.865-1.362-4.29c5.827-3.022,9.815-9.088,9.815-16.108 c0-10.013-8.121-18.138-18.141-18.138c-0.597,0-1.183,0.03-1.768,0.089c-1.694-6.178-3.242-12.058-4.63-17.57 c6.909-2.56,11.836-9.185,11.836-16.989c0-10.02-8.117-18.138-18.134-18.138c-0.548,0-1.082,0.038-1.615,0.082 c-1.392-7.051-2.373-12.751-3.04-16.989c-0.478-2.999-0.798-5.282-1-6.796c-0.1-0.754-0.171-1.321-0.208-1.702 c-0.026-0.186-0.041-0.321-0.052-0.41l-0.012-0.097V4.459c-0.298-2.738-2.752-4.716-5.498-4.432 c-2.738,0.306-4.712,2.76-4.42,5.498c0.014,0.142,1.096,10.154,4.793,28.643C210.182,37.488,207.395,42.682,207.395,48.531z"/> <path class="st0" d="M420.761,166.318c0.608,6.282,0.661,12.333,0.205,18.123c21.35,1.209,46.837,3.223,67.048,6.588 c-0.594-7.654-1.22-15.108-1.828-22.137C469.634,167.377,446.49,165.929,420.761,166.318z"/> <path class="st0" d="M413.591,214.068c18.312,2.978,49.936,8.536,76.948,15.385c-0.362-7.088-0.798-14.332-1.283-21.562 c-19.63-3.753-44.277-7.535-70.48-9.266C417.497,204.048,415.744,209.196,413.591,214.068z"/> <path class="st0" d="M484.706,152.649c-0.802-8.55-1.552-15.944-2.127-21.584c-17.589-0.216-42.453,0.238-69.302,2.999 c2.168,6.006,3.865,11.841,5.126,17.504C438.992,150.612,462.367,150.516,484.706,152.649z"/> <path class="st0" d="M149.927,68.078c-4.73,3.276-7.838,8.737-7.838,14.923c0,10.02,8.122,18.138,18.138,18.138 c1.947,0,3.82-0.306,5.573-0.874c3.835,7.573,7.857,15.348,11.953,23.047c-3.521,3.313-5.73,7.998-5.73,13.206 c0,10.013,8.121,18.138,18.141,18.138c1.63,0,3.201-0.232,4.704-0.634c5.476,9.251,10.808,17.622,15.751,24.427 c1.619,2.231,4.738,2.724,6.968,1.105c2.227-1.627,2.723-4.746,1.1-6.962c-4.678-6.439-9.882-14.609-15.268-23.719 c3.022-3.238,4.883-7.58,4.883-12.356c0-10.02-8.122-18.145-18.138-18.145c-1.216,0-2.402,0.127-3.551,0.358 c-4.275-8.042-8.48-16.183-12.474-24.091c2.637-3.148,4.23-7.208,4.23-11.639c0-10.021-8.118-18.145-18.141-18.145 c-0.254,0-0.504,0.037-0.758,0.037c-4.219-8.744-7.755-16.25-10.296-21.696c-1.392-2.97-2.481-5.334-3.223-6.946 c-0.373-0.813-0.653-1.432-0.847-1.85c-0.19-0.418-0.287-0.634-0.287-0.634c-1.141-2.499-4.1-3.611-6.607-2.477 c-2.506,1.149-3.614,4.103-2.477,6.61C135.744,37.922,141.369,50.3,149.927,68.078z"/> <path class="st0" d="M211.931,258.968c-10.52,0-19.047,8.528-19.047,19.055c0,10.505,8.528,19.04,19.047,19.04 c10.517,0,19.048-8.536,19.048-19.04C230.98,267.496,222.448,258.968,211.931,258.968z"/> <path class="st0" d="M263.636,312.486c0-10.52-8.532-19.048-19.051-19.048c-10.52,0-19.044,8.528-19.044,19.048 c0,10.52,8.524,19.048,19.044,19.048C255.105,331.534,263.636,323.006,263.636,312.486z"/> <path class="st0" d="M239.142,269.846c0,10.52,8.528,19.056,19.051,19.056c10.517,0,19.044-8.535,19.044-19.056 c0-10.513-8.528-19.041-19.044-19.041C247.67,250.806,239.142,259.334,239.142,269.846z"/> </g> </g>
</svg>