<!DOCTYPE svg PUBLIC "-//W3C//DTD SVG 1.1//EN" "http://www.w3.org/Graphics/SVG/1.1/DTD/svg11.dtd">
<!-- Uploaded to: SVG Repo, www.svgrepo.com, Transformed by: SVG Repo Mixer Tools -->
<svg version="1.1" id="_x32_" xmlns="http://www.w3.org/2000/svg" xmlns:xlink="http://www.w3.org/1999/xlink" viewBox="0 0 512 512" xml:space="preserve" width="800px" height="800px" fill="#000000">
<g id="SVGRepo_bgCarrier" stroke-width="0"/>
<g id="SVGRepo_tracerCarrier" stroke-linecap="round" stroke-linejoin="round"/>
<g id="SVGRepo_iconCarrier"> <style type="text/css"> .st0{fill:#F13F3F;} </style> <g> <polygon class="st0" points="270.808,274.997 441.158,274.997 441.158,273.666 441.158,244.476 441.158,186.116 270.808,186.116 "/> <polygon class="st0" points="70.838,244.476 70.838,273.666 70.838,274.997 241.187,274.997 241.187,186.116 70.838,186.116 "/> <rect x="270.808" y="304.617" class="st0" width="170.35" height="207.383"/> <rect x="70.838" y="304.617" class="st0" width="170.349" height="207.383"/> <path class="st0" d="M289.648,170.87C467.854,140.024,480.511,21.523,406.168,2.937C328.03-16.596,274.894,66.131,256.002,108.633 C237.106,66.131,183.97-16.596,105.832,2.937C31.488,21.523,44.146,140.024,222.353,170.87 c14.671,2.526,26.424-3.666,33.645-13.112C263.223,167.205,274.976,173.397,289.648,170.87z M356.976,98.307 c-0.69,18.816-25.596,43.249-78.65,52.427c-0.574,0.096-1.129,0.143-1.675,0.143c-2.249,0-4.158-0.918-5.69-2.727 c-1.704-2.009-2.598-4.852-2.225-7.073c1.598-8.891,26.166-62.256,63.064-62.256c3.312,0,6.719,0.431,10.135,1.292 C351.832,82.573,357.315,89.224,356.976,98.307z M170.069,80.113c3.412-0.86,6.819-1.292,10.13-1.292 c36.908,0,61.466,53.365,63.064,62.256c0.374,2.221-0.522,5.064-2.225,7.073c-1.527,1.809-3.441,2.727-5.69,2.727 c-0.541,0-1.101-0.047-1.67-0.143c-53.058-9.178-77.966-33.612-78.655-52.427C154.684,89.224,160.169,82.573,170.069,80.113z"/> </g> </g>
</svg>