<!DOCTYPE svg PUBLIC "-//W3C//DTD SVG 1.1//EN" "http://www.w3.org/Graphics/SVG/1.1/DTD/svg11.dtd">
<!-- Uploaded to: SVG Repo, www.svgrepo.com, Transformed by: SVG Repo Mixer Tools -->
<svg height="800px" width="800px" version="1.1" id="_x32_" xmlns="http://www.w3.org/2000/svg" xmlns:xlink="http://www.w3.org/1999/xlink" viewBox="0 0 512 512" xml:space="preserve" fill="#000000">
<g id="SVGRepo_bgCarrier" stroke-width="0"/>
<g id="SVGRepo_tracerCarrier" stroke-linecap="round" stroke-linejoin="round"/>
<g id="SVGRepo_iconCarrier"> <style type="text/css"> .st0{fill:#F13F3F;} </style> <g> <path class="st0" d="M196.257,32.896H0v178.712h102.034C148.839,185.833,196.257,81.979,196.257,32.896z"/> <path class="st0" d="M0,237.92v241.183c37.576,0,50.106-24.114,91.874-8.762c41.768,15.352,68.902-4.393,68.902-4.393 s-31.853-149.6-54.99-228.028H0z"/> <path class="st0" d="M315.743,32.896c0,49.083,47.418,152.937,94.223,178.712H512V32.896H315.743z"/> <path class="st0" d="M351.224,465.948c0,0,27.134,19.744,68.902,4.393c41.767-15.352,54.298,8.762,91.874,8.762V237.92H406.213 C383.077,316.348,351.224,465.948,351.224,465.948z"/> <polygon class="st0" points="206.937,137.318 196.785,186.936 147.182,197.072 196.785,207.208 206.937,256.819 217.073,207.208 266.676,197.072 217.073,186.936 "/> <polygon class="st0" points="337.238,281.958 329.744,245.34 322.266,281.958 285.64,289.432 322.266,296.922 329.744,333.548 337.238,296.922 373.852,289.432 "/> <polygon class="st0" points="200.304,364.516 194.495,392.93 166.066,398.743 194.495,404.556 200.304,432.978 206.11,404.556 234.548,398.743 206.11,392.93 "/> </g> </g>
</svg>