<!DOCTYPE svg PUBLIC "-//W3C//DTD SVG 1.1//EN" "http://www.w3.org/Graphics/SVG/1.1/DTD/svg11.dtd">
<!-- Uploaded to: SVG Repo, www.svgrepo.com, Transformed by: SVG Repo Mixer Tools -->
<svg height="800px" width="800px" version="1.1" id="_x32_" xmlns="http://www.w3.org/2000/svg" xmlns:xlink="http://www.w3.org/1999/xlink" viewBox="0 0 512 512" xml:space="preserve" fill="#000000">
<g id="SVGRepo_bgCarrier" stroke-width="0"/>
<g id="SVGRepo_tracerCarrier" stroke-linecap="round" stroke-linejoin="round"/>
<g id="SVGRepo_iconCarrier"> <style type="text/css"> .st0{fill:#F13F3F;} </style> <g> <polygon class="st0" points="374.314,433.894 374.314,433.887 373.457,434.714 "/> <path class="st0" d="M85.574,254.221c0.236-0.162,0.472-0.369,0.701-0.517c2.708-1.653,5.314-2.391,7.447-3.056 c1.431-0.428,2.672-0.804,3.63-1.203c1.285-0.538,2-1.026,2.502-1.608c0.288-0.347,0.561-0.76,0.834-1.446 c0.274-0.738,0.34-1.24,0.34-1.712c0-0.494-0.082-0.996-0.303-1.646c-0.221-0.649-0.598-1.439-1.1-2.332 c-1.004-1.823-2.576-4.022-3.882-6.982c-0.871-1.963-1.572-4.354-1.572-7.056c0-1.926,0.376-3.963,1.129-5.941 c0.724-1.846,1.698-3.506,2.871-4.878c1.181-1.381,2.532-2.465,3.867-3.3c2.702-1.645,5.307-2.391,7.447-3.055 c1.424-0.428,2.664-0.804,3.631-1.202c1.284-0.539,2-1.034,2.502-1.617c0.288-0.339,0.561-0.752,0.834-1.439 c0.273-0.738,0.347-1.248,0.347-1.728c0-0.487-0.088-0.988-0.31-1.645c-0.221-0.65-0.598-1.432-1.1-2.325 c-1.004-1.824-2.576-4.03-3.882-6.982c-0.856-1.963-1.565-4.354-1.565-7.056c0-1.926,0.37-3.963,1.136-5.949 c0.709-1.852,1.683-3.505,2.864-4.886c1.174-1.372,2.524-2.45,3.868-3.284c0.974-0.598,1.926-1.056,2.848-1.454 c-4.532-1.52-9.255-3.203-14.207-5.062c-5.011-1.757-10.088-2.583-15.086-2.583c-9.453,0-18.62,2.96-26.251,8.28 c-7.616,5.328-13.668,12.96-16.989,22.428c-1.771,5.056-2.598,10.214-2.598,15.3c-0.014,9.512,2.938,18.782,8.244,26.384 c5.307,7.609,12.872,13.543,22.311,16.612C79.302,252.34,82.468,253.299,85.574,254.221z"/> <path class="st0" d="M413.982,420.167c-2.399-1.232-4.871-2.598-7.373-4.022c-1.439,0.324-2.834,0.443-4.118,0.443 c-2.273-0.008-4.258-0.317-5.956-0.576c-1.712-0.251-3.144-0.443-4.236-0.443c-0.871,0-1.506,0.104-2.022,0.288 c-0.517,0.192-0.989,0.443-1.668,1.078l-0.022,0.014c-0.702,0.702-0.968,1.181-1.182,1.764c-0.206,0.584-0.325,1.336-0.325,2.406 c-0.007,0.996,0.111,2.243,0.258,3.69c0.155,1.44,0.325,3.07,0.34,4.901c0,1.919-0.221,4.096-1.004,6.354 c-0.796,2.258-2.206,4.502-4.192,6.384c-1.778,1.712-3.845,2.96-5.919,3.676c-2.081,0.73-4.118,0.952-5.933,0.952 c-2.288-0.007-4.266-0.324-5.978-0.568c-1.698-0.265-3.13-0.443-4.222-0.443c-0.878,0-1.506,0.104-2.022,0.281 c-0.517,0.191-0.996,0.443-1.66,1.07c-0.716,0.708-0.982,1.188-1.196,1.771c-0.207,0.576-0.332,1.328-0.332,2.391 c0,1.011,0.118,2.259,0.266,3.698c0.155,1.446,0.339,3.092,0.339,4.93c0,1.919-0.206,4.09-1.011,6.332 c-0.782,2.259-2.192,4.495-4.169,6.377c-1.779,1.712-3.845,2.959-5.919,3.675c-2.081,0.723-4.118,0.944-5.934,0.944 c-1.993,0-3.727-0.243-5.284-0.472c8.074,8.104,15.985,15.521,23.174,21.167c4.612,3.632,8.93,6.524,12.62,8.384 c7.196,3.66,14.805,5.372,22.333,5.388c8.827,0,17.506-2.391,25.018-6.871c7.536-4.48,13.905-11.012,18.244-19.403 c3.705-7.166,5.432-14.76,5.432-22.274c0-8.812-2.406-17.483-6.893-25.019C428.934,430.89,422.381,424.506,413.982,420.167z"/> <path class="st0" d="M172.086,475.43c0.008-1.838,0.177-3.476,0.332-4.93c0.156-1.439,0.274-2.694,0.274-3.69 c0-1.056-0.118-1.823-0.325-2.391c-0.221-0.583-0.486-1.07-1.21-1.779c-0.664-0.62-1.137-0.871-1.654-1.055 c-0.517-0.185-1.137-0.288-2.007-0.288c-1.092-0.008-2.532,0.184-4.237,0.443c-1.712,0.243-3.697,0.56-5.978,0.575 c-1.815,0-3.852-0.221-5.926-0.959c-2.074-0.716-4.14-1.964-5.919-3.675h-0.007c-1.978-1.875-3.38-4.126-4.162-6.362 c-0.805-2.259-1.019-4.443-1.019-6.362c0.008-1.83,0.192-3.469,0.332-4.908c0.155-1.447,0.273-2.694,0.273-3.698 c0-1.063-0.118-1.823-0.325-2.406c-0.222-0.575-0.487-1.055-1.21-1.764c-0.664-0.634-1.144-0.886-1.668-1.077 c-0.517-0.185-1.136-0.281-2.022-0.281c-1.078-0.007-2.517,0.185-4.229,0.436c-1.705,0.251-3.683,0.568-5.956,0.568 c-1.823,0.007-3.86-0.222-5.941-0.952c-2.089-0.709-4.14-1.963-5.934-3.682c-1.97-1.882-3.387-4.126-4.177-6.377 c-0.798-2.258-1.004-4.435-1.004-6.354v-0.074c-3.536,2.104-7.019,4.045-10.384,5.779c-8.392,4.34-14.946,10.723-19.44,18.266 c-4.494,7.536-6.908,16.207-6.908,25.019c0.015,7.514,1.749,15.108,5.44,22.274c4.34,8.391,10.709,14.923,18.244,19.403 c7.52,4.48,16.2,6.871,25.027,6.871c7.513-0.015,15.137-1.728,22.332-5.388h-0.014c4.554-2.303,10.023-6.14,15.875-11.012 c4.694-3.911,9.653-8.479,14.716-13.395l-0.184-0.435C172.292,479.519,172.086,477.349,172.086,475.43z"/> <path class="st0" d="M338.792,465.711c0.878,0,1.491-0.104,2.022-0.288c0.509-0.184,0.988-0.435,1.653-1.07 c0.723-0.694,0.982-1.181,1.203-1.757c0.206-0.582,0.325-1.328,0.325-2.391c0-1.004-0.118-2.258-0.274-3.704 c-0.147-1.446-0.332-3.085-0.332-4.923c0-1.919,0.206-4.096,1.011-6.347c0.782-2.244,2.192-4.48,4.162-6.354 c1.786-1.727,3.852-2.967,5.926-3.69c2.089-0.731,4.126-0.952,5.942-0.952c2.273,0,4.251,0.317,5.963,0.568 c1.712,0.258,3.144,0.45,4.237,0.45c0.87,0,1.491-0.104,2.022-0.288c0.516-0.192,0.989-0.443,1.661-1.078 c0.716-0.694,0.982-1.188,1.203-1.772c0.206-0.583,0.324-1.343,0.324-2.406c0-1.004-0.11-2.244-0.265-3.69 c-0.148-1.439-0.325-3.07-0.325-4.9c0-1.926,0.207-4.104,1.004-6.355c0.782-2.258,2.199-4.502,4.178-6.376 c1.786-1.719,3.852-2.975,5.933-3.698c0.531-0.177,1.062-0.339,1.594-0.465c-2.894-2.044-5.75-4.169-8.554-6.376 c-11.402-8.974-21.971-19.144-29.566-30.112c-5.041-7.329-8.804-15.064-10.207-23.3c-1.446-8.724-2.17-16.444-2.184-23.411 c0-10.982,1.845-20.162,5.786-27.838c3.912-7.675,9.904-13.461,16.842-17.675c4.635-2.842,9.698-5.064,15.107-7.012 c7.233-2.59,15.108-4.694,23.61-6.886c3.048-0.782,6.192-1.587,9.402-2.413c0.517-1.381,1.129-2.628,1.742-3.72 c1.41-2.473,2.723-4.421,3.35-5.905c0.428-0.988,0.576-1.682,0.576-2.332c0-0.472-0.074-0.967-0.347-1.705 c-0.258-0.678-0.531-1.092-0.819-1.431c-0.288-0.347-0.613-0.62-1.1-0.923c-0.937-0.598-2.546-1.174-4.642-1.794 c-1.388-0.428-2.981-0.892-4.694-1.594c-2.266-0.93-4.849-2.362-6.966-4.82c-1.196-1.387-2.2-3.063-2.923-4.952 c-0.76-1.978-1.136-4.008-1.136-5.933c0-2.022,0.398-3.89,0.959-5.506c0.568-1.623,1.284-3.026,1.978-4.265 c1.409-2.473,2.724-4.421,3.351-5.897c0.428-0.996,0.576-1.697,0.576-2.34c0-0.479-0.074-0.974-0.347-1.712 c-0.258-0.679-0.532-1.093-0.819-1.432c-0.295-0.339-0.62-0.62-1.093-0.915c-0.944-0.604-2.554-1.18-4.657-1.8 c-1.388-0.429-2.989-0.894-4.701-1.595c-2.258-0.93-4.842-2.369-6.952-4.827c-1.203-1.38-2.213-3.062-2.922-4.945 c-0.768-1.978-1.136-4.022-1.136-5.941c0-2.022,0.398-3.882,0.96-5.498c0.414-1.225,0.93-2.281,1.453-3.277 c-4.73,1.358-9.218,2.524-13.439,3.498c-11.815,2.694-21.72,3.934-29.993,3.941c-4.782-0.008-9.026-0.413-12.841-1.285 c-3.794-0.87-7.196-2.199-10.156-4.236c-1.963-1.35-3.712-3.063-5.048-5.107c-1.808-2.708-2.745-6.022-2.731-9.174 c0-3.21,0.856-6.229,2.17-8.989c1.299-2.694,3.041-5.211,5.166-7.616c5.742-6.886,12.517-15.085,17.845-25.086 c5.299-10,9.181-21.661,9.196-35.853c-0.007-23.411-8.974-44.459-23.676-59.662C299.647,9.38,279.292,0.015,256,0 c-23.292,0.015-43.654,9.38-58.378,24.577c-14.702,15.203-23.676,36.251-23.676,59.662c0.015,14.192,3.882,25.853,9.196,35.853 c5.321,10.001,12.104,18.2,17.845,25.086c2.111,2.406,3.867,4.922,5.152,7.616c1.321,2.76,2.17,5.778,2.17,8.989 c0.014,2.369-0.495,4.82-1.52,7.041c-1.041,2.221-2.568,4.192-4.369,5.764c-3.631,3.173-8.148,4.945-13.329,5.985 c-3.469,0.679-7.299,1.004-11.558,1.004c-8.266-0.008-18.17-1.24-29.979-3.934c-3.004-0.701-6.14-1.484-9.388-2.362 c-0.539,0.42-1.078,0.834-1.624,1.173c-2.701,1.654-5.313,2.392-7.447,3.056c-1.424,0.428-2.672,0.812-3.624,1.203 c-1.298,0.546-2.007,1.04-2.509,1.616c-0.296,0.347-0.561,0.76-0.834,1.454l-0.237,0.612l0.237-0.606 c-0.274,0.731-0.347,1.233-0.354,1.705c0,0.495,0.081,0.997,0.317,1.653c0.222,0.642,0.59,1.425,1.092,2.332 c0.996,1.815,2.583,4.022,3.889,6.967c0.856,1.963,1.558,4.354,1.558,7.055c0,1.926-0.369,3.971-1.129,5.956 c-0.701,1.846-1.69,3.498-2.871,4.878c-1.18,1.381-2.524,2.465-3.867,3.292c-2.701,1.653-5.299,2.399-7.44,3.055 c-1.432,0.428-2.664,0.812-3.624,1.21c-1.299,0.539-2,1.034-2.516,1.617c-0.288,0.339-0.561,0.752-0.827,1.439v0.008 c-0.28,0.731-0.347,1.232-0.347,1.705c0,0.494,0.082,0.996,0.303,1.646c0.222,0.649,0.598,1.432,1.107,2.332 c0.996,1.823,2.583,4.022,3.882,6.974c0.864,1.971,1.565,4.362,1.565,7.063c0,1.926-0.37,3.963-1.129,5.941 c-0.701,1.852-1.698,3.513-2.871,4.878c-1.166,1.38-2.524,2.465-3.867,3.299c-0.296,0.177-0.591,0.317-0.894,0.479 c1.439,0.376,2.908,0.753,4.318,1.115c10.022,2.568,19.233,4.9,27.588,7.83c5.564,1.963,10.76,4.2,15.513,7.063 c6.332,3.786,11.897,8.812,15.853,15.424c2.258,3.764,4,7.985,5.166,12.635c1.351,5.314,1.992,11.166,2,17.683 c-0.008,6.96-0.731,14.687-2.192,23.411c-1.388,8.236-5.166,15.971-10.2,23.3c-5.064,7.321-11.455,14.258-18.525,20.753 c-7.13,6.546-14.96,12.612-22.85,18.008c-0.03,1.564-0.17,3.004-0.295,4.273c-0.148,1.44-0.266,2.687-0.266,3.69 c0,1.07,0.118,1.823,0.325,2.406c0.222,0.583,0.48,1.063,1.21,1.778h-0.014c0.679,0.627,1.151,0.878,1.676,1.07 c0.524,0.178,1.143,0.28,2.029,0.28c1.085,0.015,2.524-0.177,4.222-0.443c1.712-0.243,3.69-0.561,5.964-0.568 c1.822,0,3.859,0.229,5.948,0.96c2.082,0.723,4.134,1.963,5.934,3.683h-0.015c1.978,1.874,3.395,4.125,4.184,6.376 c0.79,2.251,0.996,4.429,1.011,6.348c-0.015,1.83-0.192,3.469-0.339,4.908c-0.155,1.454-0.266,2.694-0.266,3.698 c0,1.062,0.118,1.83,0.325,2.398c0.222,0.583,0.48,1.07,1.203,1.771c0.664,0.627,1.144,0.872,1.66,1.063 c0.51,0.192,1.137,0.288,2.007,0.288c1.085,0.007,2.524-0.184,4.237-0.443c1.712-0.251,3.69-0.561,5.978-0.575 c1.815,0,3.845,0.221,5.933,0.951c2.038,0.709,4.059,1.934,5.83,3.61l0.074,0.073c1.978,1.875,3.402,4.119,4.177,6.362 c0.797,2.259,1.004,4.443,1.004,6.355c0,1.616-0.14,3.062-0.28,4.383c10.466-10.782,21.034-22.296,30.806-32.37 c8.03-8.281,15.499-15.58,22.318-20.908c3.927-3.04,7.587-5.498,11.58-7.085c2.148-0.841,4.45-1.453,7.063-1.468 c3.439,0.03,6.303,1.041,9.033,2.325c2.716,1.314,5.344,3.026,8.052,5.041c5.402,4.037,11.159,9.351,17.351,15.477 c9.948,9.89,20.96,21.897,32.045,33.513l0.17-0.073c2.088-0.731,4.126-0.952,5.933-0.952c2.281,0.014,4.259,0.325,5.971,0.576 C336.268,465.526,337.7,465.718,338.792,465.711z M282.141,68.526c5.875,0,10.642,4.768,10.642,10.65 c0,5.874-4.768,10.642-10.642,10.642c-5.889,0-10.657-4.768-10.657-10.642C271.484,73.294,276.252,68.526,282.141,68.526z M229.859,68.526c5.883,0,10.65,4.768,10.65,10.65c0,5.874-4.767,10.642-10.65,10.642c-5.882,0-10.657-4.768-10.657-10.642 C219.202,73.294,223.977,68.526,229.859,68.526z M220.191,109.088c3.557-1.66,7.779-0.111,9.425,3.432 c2.266,4.871,5.779,8.945,10.14,11.793c4.362,2.857,9.528,4.517,15.321,4.517c5.779,0,10.96-1.66,15.33-4.517 c4.354-2.848,7.867-6.922,10.133-11.793c1.66-3.543,5.882-5.092,9.425-3.432c3.557,1.646,5.106,5.874,3.446,9.425 c-3.35,7.225-8.612,13.344-15.225,17.683c-6.598,4.332-14.562,6.842-23.108,6.834c-8.546,0.008-16.509-2.502-23.108-6.834 c-6.613-4.34-11.868-10.458-15.225-17.683C215.098,114.962,216.633,110.734,220.191,109.088z M256,367.28 c-9.676,0-17.52-7.845-17.52-17.528c0-9.668,7.844-17.514,17.52-17.514c9.668,0,17.521,7.845,17.521,17.514 C273.521,359.435,265.668,367.28,256,367.28z M256,299.123c-9.676,0-17.52-7.838-17.52-17.513c0-9.683,7.844-17.521,17.52-17.521 c9.668,0,17.521,7.838,17.521,17.521C273.521,291.285,265.668,299.123,256,299.123z M301.574,235.926L256,223.445l-45.566,12.48 v-45.573L256,202.825l45.574-12.472V235.926z"/> <path class="st0" d="M463.873,192.987c-3.314-9.469-9.374-17.1-16.997-22.428c-7.624-5.321-16.805-8.28-26.244-8.28 c-5.011,0-10.089,0.826-15.1,2.583c-4.126,1.557-8.096,2.989-11.949,4.302c-0.104,0.428-0.236,0.841-0.376,1.247 c-0.568,1.624-1.277,3.026-1.97,4.266c-1.417,2.48-2.732,4.413-3.351,5.897c-0.428,0.996-0.576,1.698-0.583,2.347 c0.008,0.472,0.082,0.982,0.347,1.705c0.274,0.686,0.546,1.1,0.827,1.446c0.296,0.333,0.627,0.62,1.1,0.915 c0.944,0.606,2.554,1.174,4.642,1.794c1.395,0.428,2.989,0.886,4.708,1.594c2.259,0.938,4.842,2.369,6.953,4.82 c1.21,1.388,2.199,3.078,2.922,4.945c0.767,1.993,1.136,4.03,1.136,5.948c0,2.015-0.399,3.875-0.96,5.499 c-0.561,1.631-1.276,3.033-1.978,4.273c-1.403,2.473-2.716,4.414-3.351,5.897c-0.428,0.996-0.575,1.69-0.575,2.34 c0,0.472,0.074,0.974,0.354,1.704c0.258,0.687,0.531,1.093,0.812,1.44c0.295,0.339,0.627,0.612,1.106,0.915 c0.938,0.598,2.547,1.173,4.65,1.8c1.38,0.414,2.974,0.886,4.694,1.587c2.258,0.93,4.841,2.362,6.952,4.819 c1.21,1.388,2.214,3.071,2.922,4.945c0.768,1.978,1.136,4.015,1.136,5.941c0,2.015-0.398,3.874-0.96,5.506 c-0.265,0.783-0.575,1.513-0.9,2.2c3.941-1.13,7.956-2.318,12.074-3.668c9.432-3.07,17.004-9.004,22.303-16.612 c5.299-7.602,8.258-16.872,8.251-26.384C466.471,203.201,465.637,198.035,463.873,192.987z"/> </g> </g>
</svg>