<?xml version="1.0" encoding="utf-8" ?>
<svg xmlns="http://www.w3.org/2000/svg" xmlns:xlink="http://www.w3.org/1999/xlink" width="1283" height="855">
	<path fill="#F13F3F" transform="matrix(1.67057 0 0 1.66992 0 6.10352e-05)" d="M0 0L0 512L768 512L768 0L0 0Z"/>
	<path fill="#343A40" transform="matrix(1.67057 0 0 1.66992 0 6.10352e-05)" d="M133.809 433.787C133.27 424.459 133.718 414.857 133.719 405.505L133.686 87.0922C133.676 83.3907 133.252 79.1318 134.031 75.5267C147.888 81.674 160.926 90.3284 173.948 98.0577L256.906 147.621C266.162 153.062 276.585 160.196 285.857 164.951C289.683 163.097 293.34 160.758 297.004 158.599C316.494 147.112 335.654 135.022 355.082 123.412C361.765 119.418 368.317 114.289 375.61 111.506C375.13 117.401 375.292 123.361 375.294 129.271L375.295 378.718C375.295 386.285 375.157 393.88 375.524 401.44C368.602 396.719 361.183 392.583 353.995 388.275C330.728 374.705 307.622 360.544 284.775 346.29C279.223 348.552 273.366 352.794 268.185 355.901L133.809 433.787ZM178.318 156.479C178.975 166.199 178.673 176.041 178.675 185.781L178.677 309.874C178.675 324.349 178.849 338.849 178.585 353.322C192.865 345.243 206.958 336.835 221.124 328.558L275.289 296.829C287.43 289.453 299.803 282.424 312.052 275.225C320.692 270.147 337.637 263.186 329.103 249.425C325.118 242.999 314.234 238.299 307.962 234.452L215.944 179.032C203.46 171.475 191.036 163.632 178.318 156.479Z"/>
	<path fill="#343A40" transform="matrix(1.67057 0 0 1.66992 0 6.10352e-05)" d="M481.805 165.03C490.937 160.826 505.591 150.681 514.913 145.142L620.861 82.2629C624.823 79.9721 628.943 77.2579 633.245 75.6774L633.869 75.8561C634.941 77.4648 634.287 80.7526 634.288 82.6278L634.288 422.998C634.288 425.845 635.205 431.124 633.819 433.637C632.368 432.067 626.639 429.505 624.479 428.268L515.133 364.858C504.956 359.008 493.397 351.412 483.153 346.223C474.11 351.48 465.299 357.251 456.37 362.71L414.402 388.037L392.382 401.675C392.855 390.219 392.721 378.757 392.722 367.293L392.716 128.155C392.703 122.423 392.346 116.668 392.542 110.943C397.304 113.417 401.849 116.348 406.44 119.127L457.11 150.141C465.126 155.119 473.261 161.077 481.805 165.03ZM588.596 156.531L588.392 156.675C585.212 158.868 581.639 160.618 578.34 162.648L472.266 227.107C463.244 232.73 439.069 244.145 437.286 253.382C434.708 266.735 450.318 272.265 459.597 277.571L484.322 291.917C486.264 293.05 491.786 295.823 492.956 297.272C495.952 298.618 498.802 300.506 501.638 302.159L570.675 342.692C572.994 344.084 588.076 352.248 588.684 353.205C590.072 350.496 589.335 309.801 589.335 303.975L589.325 190.739C589.324 185.429 590.409 159.451 589.02 156.647L588.596 156.531Z"/>
</svg>
